<?xml version="1.0" standalone="no"?>
<!DOCTYPE svg PUBLIC "-//W3C//DTD SVG 20010904//EN"
 "http://www.w3.org/TR/2001/REC-SVG-20010904/DTD/svg10.dtd">
<svg version="1.0" xmlns="http://www.w3.org/2000/svg"
 width="328.000000pt" height="154.000000pt" viewBox="0 0 328.000000 154.000000"
 preserveAspectRatio="xMidYMid meet">

<g transform="translate(0.000000,154.000000) scale(0.100000,-0.100000)"
fill="#000000" stroke="none">
<path d="M0 1270 l0 -270 100 0 c97 0 102 -1 124 -27 33 -38 89 -38 122 0 13
15 28 27 34 27 14 0 13 -37 -3 -43 -6 -3 8 -5 33 -5 25 0 39 2 33 5 -7 2 -13
12 -13 22 0 13 10 17 40 18 33 2 40 -1 40 -17 0 -10 -6 -21 -13 -23 -6 -3 8
-5 33 -5 25 0 39 2 33 5 -7 2 -13 13 -13 23 0 16 13 18 154 19 134 2 154 0
160 -14 9 -24 8 -28 -8 -22 -20 8 -34 -52 -15 -63 10 -7 10 -11 0 -24 -7 -9
-11 -29 -9 -46 3 -20 0 -30 -9 -30 -7 0 -13 -4 -13 -10 0 -5 8 -6 18 -3 15 6
15 5 3 -11 -13 -16 -13 -17 4 -14 17 3 21 -5 27 -56 4 -32 14 -66 22 -75 7 -9
16 -44 19 -78 6 -74 10 -73 -153 -73 -63 0 -134 -5 -157 -10 -29 -7 -51 -6
-70 1 -16 7 -130 13 -275 16 l-248 5 0 -246 0 -246 1640 0 1640 0 0 269 0 268
-112 5 c-100 4 -118 7 -154 30 l-41 27 -14 -27 c-8 -15 -21 -33 -29 -40 -8 -8
-9 -11 -2 -7 15 8 15 6 1 -34 -6 -17 -15 -31 -21 -31 -5 0 -6 -5 -3 -10 3 -6
1 -10 -5 -10 -6 0 -8 -5 -5 -10 3 -6 1 -10 -6 -10 -7 0 -9 -3 -6 -6 3 -4 2
-15 -4 -26 -9 -16 -6 -25 12 -44 12 -13 18 -24 12 -24 -5 0 -18 9 -28 20 -10
11 -24 20 -31 20 -11 0 -31 54 -26 73 2 5 -2 6 -8 2 -6 -3 -8 -10 -6 -14 3 -4
-1 -8 -9 -8 -20 0 -19 6 8 36 19 22 19 23 1 8 -23 -19 -39 -23 -28 -5 4 7 3 8
-5 4 -6 -4 -9 -11 -6 -16 3 -5 1 -11 -4 -14 -22 -14 -21 17 0 42 20 21 17 20
-16 -6 -51 -41 -72 -27 -29 20 23 26 24 28 3 10 -28 -24 -45 -29 -33 -9 5 8 2
8 -9 -2 -18 -15 -23 -26 -7 -16 16 10 11 -1 -7 -16 -14 -12 -16 -12 -8 0 6 11
4 13 -11 7 -12 -4 -4 9 21 36 23 24 27 31 9 15 -34 -30 -54 -36 -33 -9 11 14
10 13 -9 -2 -23 -20 -30 -32 -12 -21 16 10 11 -1 -7 -16 -14 -12 -16 -12 -8 0
6 11 4 13 -11 7 -15 -6 -17 -5 -6 5 17 18 15 34 -3 19 -13 -11 -14 -8 -11 19
2 17 -1 28 -5 25 -5 -3 -9 2 -9 10 0 8 -19 30 -41 48 -23 18 -70 60 -105 92
-85 79 -85 96 -1 170 51 45 64 62 65 86 1 37 20 97 40 128 11 16 12 26 5 30
-8 5 -7 13 3 27 11 15 17 17 23 7 5 -9 23 3 62 39 30 28 68 57 84 65 17 7 41
22 55 33 23 18 30 18 115 6 50 -7 91 -13 92 -14 2 -1 16 -4 33 -7 25 -5 28 -9
20 -24 -6 -10 -17 -26 -26 -34 -12 -13 -13 -20 -4 -30 6 -8 12 -32 13 -54 0
-23 4 -39 8 -36 4 2 6 -4 5 -14 -1 -12 6 -17 27 -16 16 0 27 -5 27 -13 0 -7
-5 -13 -10 -13 -6 0 -8 -11 -4 -26 5 -19 4 -25 -5 -20 -7 5 -11 -3 -11 -24 0
-30 1 -31 22 -16 17 12 48 16 125 16 l103 0 0 295 0 295 -1640 0 -1640 0 0
-270z m1680 64 c0 -8 -4 -12 -10 -9 -5 3 -10 1 -10 -4 0 -6 5 -11 10 -11 6 0
10 -5 10 -11 0 -5 -5 -7 -12 -3 -7 4 -8 3 -4 -5 5 -7 33 -11 82 -9 41 2 74 0
74 -3 0 -3 14 -5 30 -5 17 0 30 3 30 8 0 4 7 5 15 2 10 -4 15 0 15 15 0 12 -5
21 -11 21 -5 0 -7 -4 -4 -10 9 -14 -4 -12 -20 3 -11 11 -10 16 6 25 15 10 19
9 19 0 0 -9 3 -8 10 2 7 11 10 3 11 -30 1 -25 4 -35 6 -22 3 14 9 20 16 15 9
-5 9 -3 0 8 -8 9 -9 20 -3 29 8 12 10 11 10 -5 0 -17 2 -18 11 -5 8 11 9 6 5
-22 -4 -36 1 -43 27 -39 4 0 7 -8 7 -18 0 -16 -6 -19 -37 -15 -21 2 -100 6
-175 8 l-138 5 0 -32 c0 -22 3 -28 9 -18 5 7 14 10 20 7 6 -4 11 -4 11 1 0 9
10 10 111 19 78 7 154 -10 145 -31 -3 -8 -1 -17 4 -20 6 -4 10 1 10 9 0 18 16
21 25 6 13 -20 25 -9 25 23 1 30 2 31 15 13 12 -16 12 -20 -2 -34 -14 -14 -13
-17 7 -34 12 -10 27 -15 34 -11 6 3 8 3 4 -2 -4 -4 0 -21 9 -36 13 -22 14 -32
6 -40 -9 -9 -23 -2 -58 29 -82 72 -187 90 -301 52 -115 -39 -169 -120 -169
-255 0 -63 5 -89 22 -121 29 -55 103 -119 160 -138 67 -23 81 -21 75 9 -3 19
0 25 13 25 14 0 16 -6 11 -26 -7 -27 -7 -27 38 -21 91 13 170 69 211 150 21
41 25 46 20 20 -5 -24 -2 -34 12 -42 11 -6 13 -11 5 -11 -7 0 -10 -5 -6 -11 4
-7 1 -10 -7 -7 -8 3 -13 12 -11 19 3 12 1 12 -10 1 -11 -11 -10 -16 5 -26 16
-12 16 -14 2 -20 -9 -3 -13 -2 -10 4 12 20 -13 9 -58 -25 -36 -27 -44 -39 -40
-56 5 -17 3 -20 -7 -14 -10 6 -12 4 -7 -8 7 -18 -15 -29 -40 -20 -15 5 -14 3
2 -10 19 -14 18 -16 -25 -27 -60 -16 -168 -7 -219 19 -46 24 -51 25 -51 11 0
-6 19 -19 43 -30 l42 -19 -36 0 c-47 -1 -65 -31 -19 -31 17 0 30 5 30 10 0 12
72 13 161 3 l64 -8 -50 -6 c-42 -5 -37 -6 36 -7 l86 -2 -5 -27 c-3 -16 -19
-40 -36 -55 -35 -31 -29 -36 12 -11 34 21 18 5 -31 -31 -20 -15 -35 -31 -32
-36 3 -4 -7 -15 -20 -24 -14 -10 -23 -22 -19 -28 4 -7 3 -8 -5 -4 -9 6 -9 11
1 24 11 13 10 15 -5 9 -12 -5 -16 -3 -11 4 4 7 1 10 -7 7 -8 -3 -13 -10 -12
-15 1 -5 -7 -9 -17 -9 -10 0 -16 4 -14 8 8 13 -11 9 -25 -5 -11 -9 -13 -9 -7
1 10 17 -5 15 -33 -5 -16 -10 -21 -12 -16 -3 6 10 4 12 -9 7 -11 -5 -15 -3
-10 5 5 8 2 9 -10 5 -11 -4 -15 -3 -10 4 4 7 0 9 -13 5 -16 -5 -19 -1 -19 26
1 31 19 57 41 57 6 0 2 -5 -7 -13 -16 -12 -22 -60 -6 -50 4 3 8 0 8 -6 0 -6 5
-8 11 -5 6 5 4 11 -7 19 -17 13 -12 36 8 36 7 0 6 -6 -2 -15 -21 -25 5 -17 30
10 13 14 28 25 34 25 6 -1 -5 -15 -24 -32 -21 -19 -27 -28 -16 -24 19 7 19 6
1 -14 -26 -29 -3 -25 25 5 13 14 28 25 34 25 6 0 -2 -12 -17 -25 -15 -14 -24
-25 -18 -25 5 0 13 4 16 10 3 5 16 15 28 22 20 10 21 10 8 -5 -19 -24 2 -21
24 3 21 23 44 28 25 5 -11 -13 -10 -14 5 -9 12 5 16 4 12 -3 -4 -6 4 -10 19
-10 15 0 21 3 14 7 -8 5 -3 14 17 28 15 12 22 22 14 22 -11 0 -11 3 0 17 13
15 12 15 -11 3 -23 -12 -24 -12 -11 4 8 9 20 15 28 12 14 -6 53 13 53 25 0 15
-54 -2 -87 -28 -73 -58 -84 -65 -89 -61 -2 3 20 24 51 47 30 23 55 43 55 44 0
8 -49 0 -61 -9 -31 -24 -45 -28 -27 -8 16 19 16 20 -2 20 -10 0 -17 -2 -15 -5
7 -6 -26 -41 -38 -41 -6 0 -2 10 9 22 l19 21 -30 -19 c-30 -18 -30 -18 -13 2
17 19 16 20 -30 21 -75 1 -82 2 -82 13 0 6 66 11 173 12 l172 2 -176 6 c-173
5 -177 6 -198 30 -11 14 -19 33 -17 43 2 9 0 15 -5 11 -15 -9 -10 57 6 72 13
14 15 13 17 -3 0 -10 1 -24 1 -30 -1 -15 13 -17 22 -4 3 5 1 12 -5 16 -6 4 -5
11 3 20 14 15 41 0 30 -19 -4 -7 -2 -7 7 1 10 9 10 15 -3 27 -9 9 -21 16 -27
16 -6 0 -8 5 -5 11 9 13 -35 60 -48 52 -6 -3 -7 -1 -3 5 4 6 0 22 -7 34 -8 13
-23 46 -33 73 -19 55 -32 75 -46 75 -5 0 -8 -6 -5 -12 2 -7 0 -21 -5 -30 -7
-14 -5 -16 8 -11 9 3 14 13 11 24 -3 11 -1 17 4 13 16 -9 10 -43 -10 -53 -10
-6 -22 -7 -26 -3 -11 10 5 -58 20 -88 7 -14 24 -45 37 -70 14 -25 28 -63 32
-85 4 -22 9 -52 12 -67 l5 -28 -110 -2 c-61 -1 -126 -2 -143 -2 l-33 -1 0 90
c0 77 -2 90 -17 93 -15 3 -16 7 -6 25 14 25 15 29 17 62 0 14 7 25 15 25 8 0
17 7 20 16 10 25 7 74 -4 74 -5 0 -10 11 -10 25 0 16 6 25 16 25 11 0 14 5 10
16 -3 9 -9 27 -12 41 l-7 25 86 -4 c75 -3 87 -1 91 15 2 9 -3 21 -12 26 -13 8
-14 13 -5 22 6 6 9 17 7 24 -8 20 15 28 32 11 15 -16 15 -17 -6 -20 -5 0 -10
-4 -10 -8 0 -5 0 -12 0 -16 0 -5 7 -9 15 -9 8 0 15 8 15 17 0 9 11 28 23 42
13 14 24 33 24 41 0 30 36 96 54 102 14 5 19 16 19 45 0 21 3 45 6 54 7 19 24
11 24 -10z m115 -9 c-1 -14 2 -25 6 -25 5 0 9 9 9 20 0 11 2 20 4 20 2 0 11 3
20 6 11 4 14 0 13 -15 -1 -15 -6 -20 -17 -16 -9 3 -8 0 4 -10 10 -8 23 -12 29
-8 6 3 7 1 3 -5 -5 -8 -13 -9 -24 -3 -9 5 -34 7 -54 6 -20 -2 -41 2 -46 8 -7
11 -8 19 -3 45 1 4 6 0 11 -8 6 -9 10 -11 10 -3 0 7 7 10 17 6 12 -5 14 -3 8
7 -5 8 -4 11 3 7 5 -4 9 -18 7 -32z m-1252 -90 c-42 -63 -78 -113 -81 -111 -4
5 146 226 154 226 2 0 -30 -52 -73 -115z m1177 98 c0 -8 -4 -11 -10 -8 -17 11
-11 -7 8 -21 16 -12 15 -13 -5 -11 -18 1 -23 7 -23 27 0 17 5 27 15 27 8 0 15
-7 15 -14z m-1196 -9 c31 -31 13 -74 -31 -74 -21 0 -43 25 -43 49 0 14 29 41
45 41 7 0 21 -7 29 -16z m1463 -26 c-3 -7 -5 -2 -5 12 0 14 2 19 5 13 2 -7 2
-19 0 -25z m-1713 -24 c19 -7 21 -35 4 -53 -11 -10 -10 -14 5 -22 22 -13 22
-52 -2 -73 -10 -9 -36 -19 -57 -22 l-39 -6 35 19 c44 23 54 68 19 81 -19 7
-20 10 -6 15 23 9 22 47 -1 47 -10 0 -24 -6 -32 -12 -8 -7 -6 -3 4 10 19 22
41 27 70 16z m140 -10 c19 -19 9 -42 -31 -74 l-28 -21 43 4 c36 4 42 3 42 -14
0 -17 -8 -19 -61 -19 l-61 0 31 35 c17 20 31 45 31 56 0 25 -25 35 -45 19 -10
-8 -15 -9 -15 -2 0 30 69 42 94 16z m208 -69 c17 -38 -19 -74 -57 -57 -44 20
-28 82 22 82 15 0 27 -9 35 -25z m1228 -73 c0 -5 -7 -9 -15 -9 -8 0 -15 4 -15
9 0 4 7 8 15 8 8 0 15 -4 15 -8z m-121 -51 c-14 -4 -30 19 -22 33 3 5 12 1 20
-10 10 -13 10 -20 2 -23z m571 -56 c-60 -60 -88 -95 -77 -95 9 0 17 -4 17 -10
0 -20 -38 -10 -43 11 -4 16 6 32 46 68 29 26 70 64 92 84 81 73 57 34 -35 -58z
m-1310 75 c0 -5 -2 -10 -4 -10 -3 0 -8 5 -11 10 -3 6 -1 10 4 10 6 0 11 -4 11
-10z m177 -14 c36 -21 57 -56 33 -56 -7 0 -10 7 -7 14 4 10 1 13 -8 10 -7 -3
-28 2 -45 11 -18 9 -55 18 -84 20 -61 3 -59 3 -51 15 12 19 121 9 162 -14z
m673 14 c0 -5 -4 -10 -10 -10 -5 0 -10 5 -10 10 0 6 5 10 10 10 6 0 10 -4 10
-10z m130 -4 c0 -16 -18 -31 -27 -22 -8 8 5 36 17 36 5 0 10 -6 10 -14z m204
-5 c8 -12 -21 -34 -34 -26 -8 5 -8 11 1 21 13 16 25 18 33 5z m-924 -41 c12
-23 12 -24 -3 -11 -10 7 -17 20 -17 29 0 18 3 16 20 -18z m-360 10 c0 -5 -5
-10 -11 -10 -5 0 -7 5 -4 10 3 6 8 10 11 10 2 0 4 -4 4 -10z m1295 -10 c3 -5
-1 -10 -10 -10 -9 0 -13 5 -10 10 3 6 8 10 10 10 2 0 7 -4 10 -10z m39 -35
c-38 -45 -54 -49 -54 -14 0 11 7 19 18 19 9 0 28 9 42 20 36 28 35 25 -6 -25z
m-1207 13 c-3 -8 -6 -5 -6 6 -1 11 2 17 5 13 3 -3 4 -12 1 -19z m628 -9 c4 -6
5 -12 2 -15 -7 -7 -37 7 -37 17 0 13 27 11 35 -2z m1435 -9 c0 -5 -4 -10 -9
-10 -6 0 -13 5 -16 10 -3 6 1 10 9 10 9 0 16 -4 16 -10z m-2770 -20 c-6 -11
-17 -20 -25 -20 -8 0 -19 9 -25 20 -10 18 -8 20 25 20 33 0 35 -2 25 -20z
m1670 16 c0 -18 -14 -34 -26 -29 -21 8 -17 33 6 33 11 0 20 -2 20 -4z m75 -6
c-3 -5 -13 -10 -21 -10 -8 0 -14 5 -14 10 0 6 9 10 21 10 11 0 17 -4 14 -10z
m-1095 -10 c0 -5 -4 -10 -10 -10 -5 0 -10 5 -10 10 0 6 5 10 10 10 6 0 10 -4
10 -10z m351 -30 c-11 -6 -10 -9 5 -13 16 -4 16 -5 2 -6 -22 -1 -34 19 -17 30
7 4 16 6 18 3 3 -3 -1 -9 -8 -14z m609 5 c-7 -8 -17 -15 -23 -15 -6 0 -2 7 9
15 25 19 30 19 14 0z m-137 -12 c-7 -17 58 -43 75 -30 11 8 11 5 1 -17 -9 -19
-15 -23 -20 -14 -6 10 -12 8 -23 -7 -15 -20 -16 -20 -13 4 1 18 -6 28 -30 40
-43 21 -49 38 -13 37 17 -1 26 -6 23 -13z m-623 -3 c0 -5 -4 -10 -10 -10 -5 0
-10 5 -10 10 0 6 5 10 10 10 6 0 10 -4 10 -10z m-130 -21 c0 -14 -17 -10 -23
5 -4 10 -1 13 9 9 7 -3 14 -9 14 -14z m185 11 c-3 -5 -11 -10 -16 -10 -6 0 -7
5 -4 10 3 6 11 10 16 10 6 0 7 -4 4 -10z m902 -72 c-2 -18 -4 -6 -4 27 0 33 2
48 4 33 2 -15 2 -42 0 -60z m-1031 36 c-25 -18 -43 -18 -43 1 0 8 4 12 8 10
13 -9 39 7 32 19 -3 6 0 5 8 -2 12 -11 11 -15 -5 -28z m494 16 c0 -11 -4 -20
-10 -20 -5 0 -10 9 -10 20 0 11 5 20 10 20 6 0 10 -9 10 -20z m50 -14 c0 -19
-4 -38 -10 -41 -6 -4 -10 10 -10 34 0 23 5 41 10 41 6 0 10 -15 10 -34z m-354
-13 c-10 -10 -19 5 -10 18 6 11 8 11 12 0 2 -7 1 -15 -2 -18z m784 23 c0 -2
-7 -6 -15 -10 -8 -3 -15 -1 -15 4 0 6 7 10 15 10 8 0 15 -2 15 -4z m35 -38
c-1 -12 -6 -23 -12 -25 -5 -2 -9 7 -7 19 1 13 3 30 3 38 1 12 3 12 9 2 5 -7 8
-22 7 -34z m129 14 c3 -5 -1 -9 -9 -9 -8 0 -12 4 -9 9 3 4 7 8 9 8 2 0 6 -4 9
-8z m-229 -22 c4 -6 -7 -10 -24 -10 -17 0 -31 5 -31 10 0 6 11 10 24 10 14 0
28 -4 31 -10z m65 -16 c0 -2 -7 -4 -15 -4 -8 0 -15 4 -15 10 0 5 7 7 15 4 8
-4 15 -8 15 -10z m185 6 c8 -13 -12 -40 -30 -40 -6 0 -16 10 -22 23 -10 21 -8
23 17 25 16 1 32 -3 35 -8z m-732 -44 c3 -8 0 -17 -8 -19 -11 -5 -13 6 -6 31
2 6 9 0 14 -12z m-253 -6 c0 -5 -4 -10 -10 -10 -5 0 -10 5 -10 10 0 6 5 10 10
10 6 0 10 -4 10 -10z m-75 -21 c11 -17 -1 -21 -15 -4 -8 9 -8 15 -2 15 6 0 14
-5 17 -11z m455 2 c0 -11 -31 -24 -39 -16 -3 3 1 10 9 15 19 12 30 12 30 1z
m405 -22 c11 -17 0 -20 -21 -4 -17 13 -17 14 -2 15 9 0 20 -5 23 -11z m-1045
-66 c0 -32 -54 -3 -63 34 l-5 22 34 -22 c19 -12 34 -28 34 -34z m110 37 c0
-11 -2 -20 -4 -20 -2 0 -6 9 -9 20 -3 11 -1 20 4 20 5 0 9 -9 9 -20z m150 -26
c-15 -17 -17 -17 -23 -1 -3 8 3 14 15 14 16 2 17 -1 8 -13z m-170 -5 c0 -14
-27 -29 -52 -29 -20 0 -28 5 -28 18 0 14 8 18 40 17 22 0 40 -2 40 -6z m630
-13 c0 -8 -7 -16 -15 -20 -15 -5 -21 14 -8 27 11 12 23 8 23 -7z m238 -22
c-10 -10 -28 6 -28 24 0 15 1 15 17 -1 9 -9 14 -19 11 -23z m422 -227 c0 -10
-79 57 -189 161 -51 47 -72 73 -66 82 6 9 43 -23 131 -111 68 -68 123 -128
124 -132z m-194 140 c38 -40 80 -85 94 -102 l25 -29 -28 18 c-18 11 -38 15
-53 12 -26 -7 -139 47 -148 70 -3 8 -1 26 5 40 5 15 7 29 4 32 -6 6 14 32 24
32 4 0 38 -33 77 -73z m-1071 53 c3 -5 -3 -10 -15 -10 -12 0 -18 5 -15 10 3 6
10 10 15 10 5 0 12 -4 15 -10z m902 -72 c-3 -7 -5 -2 -5 12 0 14 2 19 5 13 2
-7 2 -19 0 -25z m-34 -39 c-7 -7 -20 -8 -30 -5 -17 7 -17 8 1 22 23 17 48 2
29 -17z m-283 -103 c0 -6 5 -5 12 2 20 20 32 13 13 -8 -19 -20 -41 -28 -30
-10 10 16 -11 12 -25 -5 -10 -12 -16 -13 -26 -4 -10 8 -11 15 -4 24 12 15 60
15 60 1z m140 -26 c-48 -42 -75 -54 -44 -19 19 22 19 22 -2 11 -11 -6 -26 -18
-34 -26 -7 -9 -18 -16 -24 -16 -6 0 5 14 24 30 19 16 42 27 51 25 8 -3 24 4
35 14 10 11 24 20 29 20 6 0 -10 -17 -35 -39z m-110 -5 c-7 -8 -17 -15 -22
-15 -6 0 -5 7 2 15 7 8 17 15 22 15 6 0 5 -7 -2 -15z m165 -11 c14 -6 14 -8
-1 -25 -24 -27 -41 -24 -18 4 10 12 12 16 4 10 -20 -18 -35 -16 -20 2 14 17
13 17 35 9z m74 -25 l-24 -20 25 7 c29 7 26 2 -9 -16 -19 -10 -22 -10 -16 1 6
9 3 11 -11 6 -12 -5 -8 2 11 18 36 30 57 34 24 4z m-48 -52 c-6 -8 -7 -18 -3
-22 4 -5 1 -5 -6 -1 -10 6 -10 11 -1 22 6 8 14 14 16 14 3 0 0 -6 -6 -13z m58
9 c-2 -2 -15 -9 -29 -15 -24 -11 -24 -11 -6 3 16 13 49 24 35 12z"/>
<path d="M1510 993 c15 -7 12 -23 -5 -23 -23 0 -18 -16 6 -17 15 -1 19 3 17
19 -2 12 -9 23 -16 24 -7 1 -8 0 -2 -3z"/>
<path d="M1466 668 c14 -28 34 -38 34 -17 0 5 -4 8 -9 5 -15 -10 -19 18 -4 29
10 8 8 10 -11 10 -23 0 -23 -1 -10 -27z"/>
<path d="M1805 310 c-3 -5 -2 -10 4 -10 5 0 13 5 16 10 3 6 2 10 -4 10 -5 0
-13 -4 -16 -10z"/>
<path d="M1752 1321 c-11 -7 -11 -9 0 -13 18 -7 39 2 32 13 -6 11 -15 11 -32
0z"/>
<path d="M484 1316 c-8 -21 -1 -49 14 -54 8 -2 12 7 12 27 0 33 -17 51 -26 27z"/>
<path d="M570 1181 c0 -17 4 -33 10 -36 11 -7 25 39 15 54 -12 21 -25 11 -25
-18z"/>
<path d="M1650 410 c-13 -8 -12 -10 3 -10 9 0 17 5 17 10 0 12 -1 12 -20 0z"/>
<path d="M2680 1200 c0 -5 7 -7 15 -4 8 4 15 8 15 10 0 2 -7 4 -15 4 -8 0 -15
-4 -15 -10z"/>
<path d="M2676 1145 c-119 -42 -182 -196 -123 -300 34 -60 147 -130 147 -91 0
9 5 16 10 16 6 0 10 -7 10 -15 0 -16 20 -19 57 -9 13 4 21 10 18 14 -3 5 -1
11 4 14 5 4 12 2 16 -4 10 -16 66 18 63 38 -2 11 3 16 14 14 22 -3 68 84 68
128 0 24 -4 30 -22 30 -22 1 -22 1 -4 15 19 14 19 16 1 54 -9 22 -27 49 -39
60 -52 48 -143 64 -220 36z m54 -40 c0 -8 -4 -15 -10 -15 -5 0 -10 7 -10 15 0
8 5 15 10 15 6 0 10 -7 10 -15z m75 5 c-3 -5 7 -12 22 -16 15 -4 33 -11 39
-16 6 -4 19 -6 28 -2 9 3 16 1 16 -4 0 -17 -20 -25 -33 -14 -7 5 -36 15 -64
22 -56 13 -68 26 -30 33 12 2 23 5 25 6 2 0 0 -3 -3 -9z m-160 -51 c11 -17 -1
-21 -15 -4 -8 9 -8 15 -2 15 6 0 14 -5 17 -11z m243 -61 c-6 -18 -28 -21 -28
-4 0 9 7 16 16 16 9 0 14 -5 12 -12z m-150 -18 c14 -24 32 -26 32 -5 0 17 18
19 38 6 10 -6 5 -14 -21 -30 -40 -25 -49 -26 -45 -7 2 7 -8 23 -22 34 -17 15
-20 21 -10 22 8 0 21 -9 28 -20z m-127 -17 c-12 -20 -14 -14 -5 12 4 9 9 14
11 11 3 -2 0 -13 -6 -23z m290 -31 c-7 -2 -18 1 -23 6 -8 8 -4 9 13 5 13 -4
18 -8 10 -11z m-301 -46 c0 -2 -7 -6 -15 -10 -8 -3 -15 -1 -15 4 0 6 7 10 15
10 8 0 15 -2 15 -4z m32 -88 c-7 -7 -12 -8 -12 -2 0 14 12 26 19 19 2 -3 -1
-11 -7 -17z"/>
<path d="M2910 1156 c0 -2 7 -6 15 -10 8 -3 15 -1 15 4 0 6 -7 10 -15 10 -8 0
-15 -2 -15 -4z"/>
<path d="M113 845 c-3 -9 -3 -18 -1 -21 3 -3 8 4 11 16 6 23 -1 27 -10 5z"/>
<path d="M153 852 c-8 -5 -9 -13 -3 -22 8 -13 10 -13 10 2 0 9 6 19 13 21 6 3
8 6 2 6 -5 0 -15 -3 -22 -7z"/>
<path d="M213 844 c-5 -13 -8 -13 -15 -2 -8 10 -9 10 -6 -1 7 -23 25 -24 31
-1 6 24 -1 27 -10 4z"/>
<path d="M273 839 c-2 -23 3 -25 10 -4 4 8 3 16 -1 19 -4 3 -9 -4 -9 -15z"/>
<path d="M300 855 c0 -5 5 -17 10 -25 5 -8 10 -10 10 -5 0 6 -5 17 -10 25 -5
8 -10 11 -10 5z"/>
<path d="M326 852 c6 -4 13 -14 16 -22 3 -11 6 -9 10 6 4 15 0 20 -16 22 -11
0 -16 -2 -10 -6z"/>
<path d="M391 844 c0 -11 3 -14 6 -6 3 7 2 16 -1 19 -3 4 -6 -2 -5 -13z"/>
<path d="M423 845 c-3 -9 -3 -19 1 -22 3 -4 6 1 6 10 0 8 6 18 13 20 9 4 9 6
-1 6 -7 1 -15 -6 -19 -14z"/>
<path d="M461 844 c0 -11 3 -14 6 -6 3 7 2 16 -1 19 -3 4 -6 -2 -5 -13z"/>
<path d="M487 853 c-4 -3 -7 -13 -7 -22 1 -13 3 -13 11 2 11 19 8 33 -4 20z"/>
<path d="M527 841 c-4 -17 -3 -21 5 -13 5 5 8 16 6 23 -3 8 -7 3 -11 -10z"/>
<path d="M584 846 c-10 -8 -16 -18 -11 -22 4 -4 7 -1 7 7 0 11 2 12 9 1 6 -10
10 -9 14 7 6 25 6 25 -19 7z"/>
<path d="M692 840 c0 -14 2 -19 5 -12 2 6 2 18 0 25 -3 6 -5 1 -5 -13z"/>
<path d="M3004 830 c-4 -16 -11 -30 -16 -30 -5 0 -6 -4 -3 -10 3 -5 -1 -10
-10 -10 -12 0 -15 5 -11 17 5 13 0 11 -18 -6 -27 -25 -28 -43 -1 -21 9 7 15 8
15 2 0 -5 -15 -19 -32 -31 -18 -11 -30 -21 -25 -21 11 0 -43 -103 -62 -117
-20 -15 -12 -24 16 -17 13 4 28 21 37 42 8 21 22 46 31 57 16 20 16 19 10 -5
-5 -21 -4 -22 5 -7 6 9 16 17 22 17 7 0 6 -6 -2 -15 -11 -13 -10 -14 4 -9 9 3
16 10 16 15 0 4 6 6 14 3 19 -7 34 55 16 66 -9 6 -10 15 -2 36 l10 29 2 -30 2
-30 7 30 c5 20 3 33 -6 38 -7 4 -10 14 -7 22 4 8 3 15 0 15 -4 0 -9 -13 -12
-30z m-8 -84 c17 -13 17 -16 4 -30 -17 -17 -60 -11 -60 8 0 13 20 36 30 36 3
0 15 -6 26 -14z"/>
<path d="M3055 850 c-3 -5 -1 -10 4 -10 6 0 11 5 11 10 0 6 -2 10 -4 10 -3 0
-8 -4 -11 -10z"/>
<path d="M251 834 c0 -11 3 -14 6 -6 3 7 2 16 -1 19 -3 4 -6 -2 -5 -13z"/>
<path d="M365 841 c-3 -5 -2 -12 3 -15 5 -3 9 1 9 9 0 17 -3 19 -12 6z"/>
<path d="M551 834 c0 -11 3 -14 6 -6 3 7 2 16 -1 19 -3 4 -6 -2 -5 -13z"/>
<path d="M640 841 c0 -6 4 -13 10 -16 6 -3 7 1 4 9 -7 18 -14 21 -14 7z"/>
<path d="M2455 820 c-3 -6 1 -7 9 -4 18 7 21 14 7 14 -6 0 -13 -4 -16 -10z"/>
<path d="M2430 784 c-11 -12 -10 -18 6 -35 20 -19 20 -19 16 16 -5 40 -5 40
-22 19z"/>
<path d="M2485 787 c-19 -15 -15 -31 13 -46 16 -8 17 -5 14 25 -5 39 -3 38
-27 21z"/>
<path d="M521 774 c0 -11 3 -14 6 -6 3 7 2 16 -1 19 -3 4 -6 -2 -5 -13z"/>
<path d="M321 764 c0 -11 3 -14 6 -6 3 7 2 16 -1 19 -3 4 -6 -2 -5 -13z"/>
<path d="M356 767 c3 -10 9 -15 12 -12 3 3 0 11 -7 18 -10 9 -11 8 -5 -6z"/>
<path d="M481 764 c0 -11 3 -14 6 -6 3 7 2 16 -1 19 -3 4 -6 -2 -5 -13z"/>
<path d="M501 764 c0 -11 3 -14 6 -6 3 7 2 16 -1 19 -3 4 -6 -2 -5 -13z"/>
<path d="M2470 721 c0 -5 7 -15 17 -22 15 -13 15 -12 4 9 -12 23 -21 28 -21
13z"/>
<path d="M2565 698 c4 -13 9 -24 10 -26 4 -5 215 -52 232 -52 12 0 12 3 -1 16
-9 8 -13 20 -10 26 5 8 -7 9 -40 5 -46 -7 -74 0 -159 37 l-39 17 7 -23z m220
-48 c3 -5 -1 -10 -10 -10 -9 0 -13 5 -10 10 3 6 8 10 10 10 2 0 7 -4 10 -10z"/>
<path d="M2516 692 c-9 -15 12 -54 27 -49 6 2 13 9 15 17 3 7 0 10 -7 6 -6 -4
-15 2 -19 15 -6 14 -11 18 -16 11z"/>
<path d="M2926 628 c3 -5 10 -6 15 -3 13 9 11 12 -6 12 -8 0 -12 -4 -9 -9z"/>
<path d="M2679 543 c-13 -16 -12 -17 4 -4 16 13 21 21 13 21 -2 0 -10 -8 -17
-17z"/>
<path d="M2634 528 l-19 -23 23 19 c12 11 22 21 22 23 0 8 -8 2 -26 -19z"/>
<path d="M2729 533 c-13 -16 -12 -17 4 -4 9 7 17 15 17 17 0 8 -8 3 -21 -13z"/>
<path d="M2709 453 c-13 -16 -12 -17 4 -4 16 13 21 21 13 21 -2 0 -10 -8 -17
-17z"/>
</g>
</svg>
